<svg width="73" height="73" viewBox="0 0 73 73" fill="none" xmlns="http://www.w3.org/2000/svg">
<g clip-path="url(#clip0_48_594)">
<path d="M42.9691 0C52.9668 0 62.9644 0 73 0C73 16.7672 73 33.5534 73 50.3396C72.6396 49.1419 72.1463 48.0203 71.084 47.2789C70.6666 46.9938 70.5907 46.6896 70.5718 46.2143C70.5148 44.1232 70.6287 42.013 70.2682 39.9789C69.2059 33.7435 63.5715 29.2 57.1593 29.219C50.7661 29.238 45.1508 33.8385 44.1453 40.074C43.8228 42.1271 43.9556 44.2372 43.8418 46.3284C43.8228 46.6326 43.6521 47.0128 43.4244 47.1839C42.1534 48.1914 41.4514 49.5031 41.4325 51.119C41.4135 56.8221 41.3945 62.5253 41.4514 68.2284C41.4704 70.3576 42.5897 71.8404 44.5437 72.6958C44.8662 72.8289 45.2077 72.924 45.5492 73.019C43.3675 73.019 41.1858 73.019 39.0042 73.019C39.5543 72.6388 40.0286 72.2016 39.763 71.4411C39.5164 70.6997 38.9283 70.5477 38.2264 70.5857C38.0367 70.6047 37.847 70.5857 37.6573 70.5857C26.5403 70.5857 15.4234 70.5857 4.28746 70.5857C2.94053 70.5857 2.58008 70.2245 2.58008 68.8367C2.58008 49.7122 2.58008 30.5878 2.58008 11.4633C2.58008 10.1135 2.9595 9.73333 4.3254 9.73333C14.0006 9.73333 23.6757 9.73333 33.3509 9.73333C33.5975 9.73333 33.8631 9.73333 34.1666 9.73333C34.1666 10.0945 34.1666 10.3417 34.1666 10.6078C34.1666 13.8396 34.1666 17.0714 34.1666 20.3031C34.1666 22.8885 35.6463 24.3523 38.2264 24.3714C41.4514 24.3714 44.6765 24.3714 47.9015 24.3714C48.1482 24.3714 48.4138 24.3714 48.7173 24.3714C48.7173 25.3219 48.6983 26.1773 48.7173 27.0138C48.7363 27.8883 49.1916 28.4016 49.9125 28.4016C50.6713 28.4206 51.1266 27.9073 51.1456 26.9948C51.1645 25.8732 51.1266 24.7516 51.1645 23.649C51.1835 22.9266 50.9369 22.3943 50.4247 21.881C45.8147 17.2995 41.2238 12.6799 36.6518 8.06042C36.1016 7.50912 35.5325 7.28099 34.7737 7.28099C26.7869 7.3 18.8002 7.3 10.7945 7.3C10.4909 7.3 10.2064 7.3 9.8649 7.3C9.8649 6.15938 9.8649 5.13281 9.8649 4.10625C9.8649 2.83255 10.2633 2.43333 11.5154 2.43333C21.513 2.43333 31.5297 2.43333 41.5273 2.45234C41.8688 2.45234 42.3241 2.62344 42.5707 2.87057C46.934 7.20495 51.2784 11.5583 55.6037 15.9307C55.8314 16.1589 56.0021 16.5771 56.0021 16.9193C56.0401 19.5997 56.0211 22.2802 56.0211 24.9797C56.0211 25.2648 56.0211 25.55 56.078 25.8352C56.1918 26.4245 56.6092 26.7477 57.1783 26.7667C57.7474 26.8047 58.2027 26.5195 58.3735 25.9492C58.4494 25.6831 58.4683 25.3789 58.4683 25.1128C58.4683 22.1852 58.4683 19.2766 58.4873 16.349C58.4873 15.6646 58.2786 15.1323 57.7854 14.638C53.1375 10.0185 48.5276 5.37995 43.8987 0.741406C43.5762 0.45625 43.2537 0.228125 42.9691 0ZM18.269 40.15C25.4969 40.2641 31.5676 34.2758 31.7004 26.9188C31.8332 19.5807 25.9143 13.4974 18.5346 13.3833C11.1929 13.2693 5.08424 19.2005 4.98938 26.5576C4.89453 33.9716 10.8324 40.0359 18.269 40.15ZM20.1471 46.2143C24.0551 46.2143 27.9631 46.2143 31.8711 46.2143C32.63 46.2143 33.3888 46.2333 34.1476 46.1953C34.8496 46.1763 35.3238 45.701 35.3238 45.0357C35.3428 44.3703 34.9065 43.876 34.2046 43.8C33.9959 43.781 33.7872 43.781 33.5595 43.781C24.6243 43.781 15.689 43.781 6.75367 43.781C6.45014 43.781 6.12764 43.781 5.84307 43.876C5.25497 44.0471 4.95144 44.5034 5.00835 45.1117C5.06526 45.7201 5.42571 46.1193 6.05175 46.1953C6.2794 46.2333 6.52602 46.2143 6.75367 46.2143C11.2308 46.2143 15.689 46.2143 20.1471 46.2143ZM20.223 49.8833C15.5941 49.8833 10.9842 49.8833 6.35529 49.8833C5.55851 49.8833 5.02732 50.3586 5.00835 51.043C4.98938 51.7464 5.53954 52.2786 6.33632 52.2977C6.46911 52.2977 6.62088 52.2977 6.75367 52.2977C15.689 52.2977 24.6243 52.2977 33.5595 52.2977C33.8251 52.2977 34.0907 52.3167 34.3374 52.2596C35.248 52.0885 35.6843 50.9669 35.0393 50.3396C34.7547 50.0544 34.2046 49.8833 33.7872 49.8833C29.2721 49.8833 24.7381 49.8833 20.223 49.8833ZM20.1851 55.9667C15.7459 55.9667 11.3257 55.9667 6.88647 55.9667C6.60191 55.9667 6.31734 55.9667 6.03278 56.0047C5.42571 56.0997 4.97041 56.575 4.98938 57.1643C5.00835 57.7727 5.31189 58.2099 5.93793 58.343C6.18455 58.4 6.45014 58.4 6.71573 58.4C15.689 58.4 24.6812 58.4 33.6544 58.4C33.92 58.4 34.1856 58.4 34.4322 58.324C35.0393 58.1719 35.3428 57.7346 35.3238 57.1073C35.3049 56.4799 34.9444 56.0997 34.3374 55.9857C34.0528 55.9477 33.7682 55.9477 33.4837 55.9477C29.0445 55.9667 24.6243 55.9667 20.1851 55.9667ZM12.8054 64.4643C15.006 64.4643 17.2066 64.4643 19.4073 64.4643C20.261 64.4643 20.7732 63.9891 20.7732 63.2667C20.7732 62.5443 20.242 62.069 19.4073 62.031C19.1227 62.012 18.8381 62.031 18.5536 62.031C14.6456 62.031 10.7376 62.031 6.82956 62.031C6.62088 62.031 6.39323 62.012 6.18455 62.031C5.46365 62.107 4.97041 62.6203 4.98938 63.2857C5.00835 63.951 5.52057 64.4453 6.26043 64.4453C8.44208 64.4833 10.6237 64.4643 12.8054 64.4643Z" fill="white"/>
<path d="M42.9691 0C43.2536 0.228125 43.5761 0.45625 43.8417 0.703385C48.4706 5.34193 53.0995 9.98047 57.7284 14.6C58.2216 15.0943 58.4303 15.6266 58.4303 16.3109C58.4114 19.2385 58.4303 22.1471 58.4114 25.0747C58.4114 25.3599 58.3924 25.6451 58.3165 25.9112C58.1458 26.4815 57.6905 26.7667 57.1213 26.7286C56.5522 26.6906 56.1348 26.3865 56.021 25.7971C55.9641 25.512 55.9641 25.2268 55.9641 24.9417C55.9641 22.2612 55.9831 19.5807 55.9451 16.8813C55.9451 16.5391 55.7744 16.1398 55.5468 15.8927C51.2214 11.5203 46.8771 7.16693 42.5138 2.83255C42.2671 2.58542 41.8308 2.41432 41.4704 2.41432C31.4727 2.39531 21.4561 2.39531 11.4584 2.39531C10.2063 2.39531 9.80793 2.79453 9.80793 4.06823C9.80793 5.09479 9.80793 6.10234 9.80793 7.26198C10.1494 7.26198 10.434 7.26198 10.7375 7.26198C18.7242 7.26198 26.711 7.26198 34.7167 7.24297C35.4945 7.24297 36.0636 7.47109 36.5948 8.0224C41.1668 12.6419 45.7767 17.2424 50.3677 21.843C50.8799 22.3563 51.1265 22.8885 51.1076 23.6109C51.0696 24.7326 51.1076 25.8352 51.0886 26.9568C51.0696 27.8693 50.6143 28.3826 49.8555 28.3635C49.1346 28.3445 48.6793 27.8312 48.6603 26.9758C48.6414 26.1203 48.6603 25.2839 48.6603 24.3333C48.3378 24.3333 48.0912 24.3333 47.8446 24.3333C44.6195 24.3333 41.3945 24.3333 38.1694 24.3333C35.5894 24.3333 34.1096 22.8505 34.1096 20.2651C34.1096 17.0333 34.1096 13.8016 34.1096 10.5698C34.1096 10.3036 34.1096 10.0565 34.1096 9.69531C33.8061 9.69531 33.5405 9.69531 33.2939 9.69531C23.6187 9.69531 13.9436 9.69531 4.26843 9.69531C2.90252 9.69531 2.52311 10.0755 2.52311 11.4253C2.52311 30.5497 2.52311 49.6742 2.52311 68.7987C2.52311 70.1674 2.88355 70.5477 4.23049 70.5477C15.3474 70.5477 26.4644 70.5477 37.6003 70.5477C37.79 70.5477 37.9797 70.5667 38.1694 70.5477C38.8713 70.5096 39.4594 70.6617 39.7061 71.4031C39.9527 72.1635 39.4974 72.6008 38.9472 72.981C26.9956 72.981 15.0439 72.981 3.09223 72.981C0.7019 72.0305 0.113802 71.118 0.113802 68.5135C0.113802 49.5031 0.113802 30.4927 0.113802 11.4823C0.113802 11.0831 0.0948313 10.6648 0.170715 10.2846C0.512191 8.49766 1.95398 7.31901 3.81313 7.28099C4.98932 7.26198 6.16552 7.28099 7.37965 7.28099C7.37965 6.27344 7.37965 5.37995 7.37965 4.48646C7.4176 1.88203 8.00569 0.988542 10.396 0C21.2474 0 32.1177 0 42.9691 0ZM46.7253 21.881C43.3485 18.4971 39.9527 15.1133 36.5759 11.7294C36.5759 11.8245 36.5759 12.0336 36.5759 12.2237C36.5759 14.9042 36.5759 17.5846 36.5759 20.2841C36.5759 21.5008 36.9743 21.9 38.2074 21.9C40.8823 21.9 43.5572 21.9 46.251 21.9C46.4218 21.9 46.6115 21.9 46.7253 21.881Z" fill="black"/>
<path d="M45.5302 73C45.1887 72.8859 44.8472 72.8099 44.5247 72.6768C42.5707 71.8214 41.4514 70.3385 41.4325 68.2094C41.3756 62.5063 41.3945 56.8031 41.4135 51.1C41.4135 49.4841 42.1344 48.1914 43.4054 47.1649C43.6331 46.9748 43.8038 46.5945 43.8228 46.3094C43.9366 44.2182 43.8038 42.1081 44.1263 40.055C45.1318 33.8195 50.7472 29.219 57.1404 29.2C63.5336 29.181 69.1869 33.7245 70.2493 39.9599C70.5907 41.994 70.4769 44.1232 70.5528 46.1953C70.5718 46.6516 70.6477 46.9748 71.065 47.2599C72.1274 48.0013 72.6206 49.1229 72.9811 50.3206C72.9811 56.499 72.9811 62.6774 72.9811 68.8557C72.6586 69.5781 72.4119 70.3576 71.9946 71.0039C71.2737 72.1255 70.0975 72.6578 68.8454 72.981C61.0863 73 53.3083 73 45.5302 73ZM57.1404 70.5667C60.6879 70.5667 64.2545 70.5667 67.802 70.5667C69.5663 70.5667 70.5528 69.5971 70.5528 67.8482C70.5528 62.3542 70.5528 56.8792 70.5528 51.3852C70.5528 49.6362 69.5663 48.6477 67.802 48.6477C60.7069 48.6477 53.6308 48.6477 46.5356 48.6477C44.7903 48.6477 43.8228 49.6552 43.8228 51.4042C43.8228 56.8602 43.8228 62.3352 43.8228 67.7912C43.8228 69.5971 44.7903 70.5477 46.6115 70.5477C50.1401 70.5667 53.6497 70.5667 57.1404 70.5667ZM63.268 46.1763C63.268 44.7886 63.3439 43.4768 63.249 42.1651C63.0214 39.1044 60.7638 36.8232 57.8044 36.5C55.0156 36.1958 52.2838 37.9638 51.4301 40.7013C50.88 42.4883 51.2025 44.3133 51.1076 46.1573C55.2053 46.1763 59.2082 46.1763 63.268 46.1763ZM48.6983 46.1953C48.6983 44.9216 48.6794 43.743 48.6983 42.5453C48.7742 38.6482 51.3543 35.3024 55.0156 34.3708C58.8098 33.4013 62.6419 34.9982 64.577 38.363C65.3548 39.7128 65.7152 41.1766 65.7152 42.7164C65.7152 43.8761 65.7152 45.0167 65.7152 46.1763C66.5689 46.1763 67.3088 46.1763 68.1245 46.1763C68.1245 44.8076 68.1625 43.4958 68.1245 42.1651C67.8589 34.4469 59.8153 29.4281 52.7771 32.5649C47.8257 34.7701 45.1128 40.5112 46.3649 46.1763C47.1048 46.1953 47.8636 46.1953 48.6983 46.1953Z" fill="black"/>
<path d="M10.3961 0C8.00572 0.988542 7.41762 1.88203 7.41762 4.48646C7.41762 5.37995 7.41762 6.29245 7.41762 7.28099C6.20348 7.28099 5.02729 7.26198 3.85109 7.28099C1.99194 7.31901 0.550156 8.49766 0.20868 10.2846C0.132796 10.6839 0.151767 11.0831 0.151767 11.4823C0.151767 30.4927 0.151767 49.5031 0.151767 68.5135C0.151767 71.118 0.758836 72.0305 3.1302 72.981C2.0868 72.981 1.0434 72.981 0 72.981C0 48.6667 0 24.3333 0 0C3.47167 0 6.92438 0 10.3961 0Z" fill="white"/>
<path d="M68.8644 73C70.1165 72.6768 71.2927 72.1446 72.0135 71.0229C72.4309 70.3576 72.6775 69.5972 73 68.8748C73 70.2625 73 71.6313 73 73.019C71.6152 73 70.2493 73 68.8644 73Z" fill="white"/>
<path d="M18.269 40.1501C10.8135 40.0361 4.89455 33.9717 4.98941 26.5387C5.08426 19.2006 11.1929 13.2694 18.5346 13.3835C25.9333 13.4975 31.8332 19.5809 31.7004 26.9189C31.5866 34.2759 25.4969 40.2642 18.269 40.1501ZM26.4834 33.9907C30.1258 30.1506 30.5053 23.1928 25.8384 18.8014C21.2664 14.5051 14.0385 14.9043 9.99772 19.7139C5.86207 24.6376 7.28488 31.1202 10.1685 33.8577C10.6238 33.0592 11.0411 32.1848 11.5723 31.4243C12.1225 30.6449 12.8244 29.9605 13.4884 29.2001C11.6672 26.2345 11.9138 23.1928 14.2472 21.0637C16.4099 19.1056 19.6539 18.9345 21.9684 20.6835C23.1446 21.5769 23.9224 22.7556 24.2449 24.1814C24.6812 26.1014 24.188 27.8314 23.0118 29.4092C24.7002 30.5499 25.8005 32.0517 26.4834 33.9907ZM18.3449 37.6978C20.3369 37.6978 22.177 37.1845 23.9034 36.196C24.2638 35.9868 24.3966 35.7397 24.3018 35.3405C23.9034 33.5915 22.9738 32.2038 21.4182 31.3103C21.1716 31.1772 20.7732 31.1582 20.5076 31.2532C19.0658 31.7665 17.643 31.7665 16.2012 31.2532C15.9166 31.1582 15.4993 31.1962 15.2337 31.3483C13.735 32.2418 12.8244 33.5915 12.407 35.2835C12.2932 35.7587 12.445 36.0058 12.8623 36.253C14.5697 37.2035 16.3909 37.6978 18.3449 37.6978ZM22.0063 25.5121C21.9684 23.478 20.3179 21.8811 18.288 21.9191C16.2961 21.9572 14.6835 23.6111 14.7215 25.5881C14.7594 27.6223 16.4478 29.2572 18.4398 29.2001C20.4127 29.1621 22.0253 27.4892 22.0063 25.5121Z" fill="black"/>
<path d="M20.1471 46.2142C15.6889 46.2142 11.2308 46.2142 6.77261 46.2142C6.54496 46.2142 6.29834 46.2332 6.07068 46.1952C5.44464 46.1192 5.0842 45.7199 5.02729 45.1116C4.97037 44.5033 5.27391 44.047 5.862 43.8759C6.14657 43.7999 6.46907 43.7809 6.77261 43.7809C15.7079 43.7809 24.6432 43.7809 33.5785 43.7809C33.7872 43.7809 34.0148 43.7619 34.2235 43.7999C34.9254 43.8949 35.3617 44.3892 35.3428 45.0356C35.3238 45.7009 34.8685 46.1762 34.1666 46.1952C33.4077 46.2142 32.6489 46.2142 31.8901 46.2142C27.9631 46.2142 24.0551 46.2142 20.1471 46.2142Z" fill="black"/>
<path d="M20.2229 49.8834C24.757 49.8834 29.272 49.8644 33.8061 49.9024C34.2424 49.9024 34.7736 50.0735 35.0582 50.3587C35.7032 50.986 35.2479 52.1076 34.3562 52.2787C34.1096 52.3358 33.844 52.3168 33.5784 52.3168C24.6431 52.3168 15.7079 52.3168 6.77256 52.3168C6.63976 52.3168 6.488 52.3168 6.3552 52.3168C5.53945 52.2787 4.9893 51.7654 5.02724 51.0621C5.04621 50.3777 5.57739 49.9024 6.37417 49.9024C10.9651 49.8834 15.594 49.8834 20.2229 49.8834Z" fill="black"/>
<path d="M20.1851 55.9666C24.6242 55.9666 29.0445 55.9666 33.4837 55.9666C33.7682 55.9666 34.0528 55.9666 34.3373 56.0046C34.9634 56.0996 35.3049 56.4988 35.3238 57.1262C35.3428 57.7535 35.0393 58.1718 34.4322 58.3429C34.1856 58.3999 33.92 58.4189 33.6544 58.4189C24.6812 58.4189 15.6889 58.4189 6.71572 58.4189C6.45012 58.4189 6.18453 58.4189 5.93791 58.3619C5.33084 58.2288 5.02731 57.7916 4.98936 57.1832C4.97039 56.5939 5.40672 56.0996 6.03276 56.0236C6.31733 55.9856 6.60189 55.9856 6.88645 55.9856C11.3256 55.9666 15.7459 55.9666 20.1851 55.9666Z" fill="black"/>
<path d="M12.8054 64.4643C10.6237 64.4643 8.44207 64.4643 6.27939 64.4643C5.53953 64.4643 5.02731 63.97 5.00834 63.3046C4.98937 62.6583 5.48261 62.126 6.20351 62.05C6.41219 62.0309 6.62087 62.05 6.84852 62.05C10.7565 62.05 14.6645 62.05 18.5725 62.05C18.8571 62.05 19.1417 62.05 19.4262 62.05C20.2609 62.088 20.7921 62.5632 20.7921 63.2856C20.7921 64.008 20.2799 64.4833 19.4262 64.4833C17.2066 64.4833 15.006 64.4643 12.8054 64.4643Z" fill="#24B282"/>
<path d="M46.7254 21.8811C46.6115 21.8811 46.4408 21.9001 46.2511 21.9001C43.5762 21.9001 40.9013 21.9001 38.2074 21.9001C36.9743 21.9001 36.5759 21.5008 36.5759 20.2842C36.5759 17.6037 36.5759 14.9232 36.5759 12.2238C36.5759 12.0146 36.5759 11.8245 36.5759 11.7295C39.9338 15.1133 43.3296 18.4972 46.7254 21.8811Z" fill="#24B282"/>
<path d="M57.1403 70.5668C53.6307 70.5668 50.1211 70.5668 46.6115 70.5668C44.8092 70.5668 43.8228 69.5972 43.8228 67.8102C43.8228 62.3543 43.8228 56.8792 43.8228 51.4233C43.8228 49.6553 44.7903 48.6667 46.5356 48.6667C53.6307 48.6667 60.7068 48.6667 67.802 48.6667C69.5663 48.6667 70.5338 49.6553 70.5527 51.4042C70.5527 56.8983 70.5527 62.3733 70.5527 67.8673C70.5527 69.6162 69.5663 70.5858 67.802 70.5858C64.2544 70.5667 60.7069 70.5668 57.1403 70.5668ZM53.5928 62.0881C53.5928 62.6014 53.5548 63.1337 53.5928 63.647C53.7825 65.472 55.2432 66.8407 57.0644 66.8977C58.9426 66.9548 60.5171 65.7001 60.7638 63.8561C60.8776 62.9626 60.7827 62.0501 60.8776 61.1566C60.9155 60.7194 61.0483 60.2251 61.276 59.8639C62.547 57.8678 62.2245 55.2253 60.4982 53.6095C58.7718 52.0126 56.1728 51.8795 54.2947 53.3053C52.3976 54.7501 51.7526 57.3545 52.9288 59.4076C53.441 60.2821 53.6686 61.1186 53.5928 62.0881Z" fill="white"/>
<path d="M63.2679 46.1763C59.2081 46.1763 55.2242 46.1763 51.1265 46.1763C51.2214 44.3323 50.8799 42.4883 51.449 40.7203C52.3027 38.0018 55.0156 36.2148 57.8233 36.519C60.7827 36.8422 63.0213 39.1234 63.2679 42.1841C63.3438 43.4768 63.2679 44.7885 63.2679 46.1763Z" fill="white"/>
<path d="M48.6983 46.1954C47.8636 46.1954 47.1047 46.1954 46.3649 46.1954C45.1128 40.5303 47.8256 34.7891 52.777 32.5839C59.8152 29.4472 67.8589 34.466 68.1245 42.1842C68.1624 43.5149 68.1245 44.8266 68.1245 46.1954C67.3087 46.1954 66.5499 46.1954 65.7152 46.1954C65.7152 45.0357 65.7152 43.8761 65.7152 42.7355C65.7152 41.1766 65.3547 39.7318 64.5769 38.3821C62.6419 34.9982 58.7908 33.4014 55.0156 34.3899C51.3542 35.3404 48.7742 38.6673 48.6983 42.5644C48.6793 43.724 48.6983 44.9217 48.6983 46.1954Z" fill="white"/>
<path d="M26.4834 33.9905C25.8194 32.0705 24.7001 30.5687 23.0496 29.428C24.2258 27.8502 24.7191 26.1202 24.2828 24.2002C23.9603 22.7554 23.1824 21.5767 22.0062 20.7023C19.6918 18.9533 16.4478 19.1054 14.2851 21.0825C11.9327 23.2116 11.7051 26.2533 13.5263 29.2189C12.8623 29.9793 12.1604 30.6637 11.6102 31.4431C11.06 32.2036 10.6617 33.078 10.2063 33.8765C7.32277 31.139 5.89996 24.6374 10.0356 19.7327C14.0764 14.9231 21.3043 14.5049 25.8763 18.8202C30.5052 23.1736 30.1258 30.1314 26.4834 33.9905Z" fill="white"/>
<path d="M18.3448 37.6977C16.3908 37.6977 14.5696 37.1844 12.8622 36.2149C12.4449 35.9868 12.2931 35.7206 12.4069 35.2454C12.8243 33.5534 13.7159 32.2037 15.2336 31.3102C15.4992 31.1581 15.9166 31.1201 16.2011 31.2152C17.6429 31.7285 19.0657 31.7285 20.5075 31.2152C20.7731 31.1201 21.1715 31.1391 21.4181 31.2722C22.9737 32.1847 23.9033 33.5535 24.3017 35.3024C24.3966 35.7016 24.2827 35.9488 23.9033 36.1579C22.177 37.1844 20.3368 37.6977 18.3448 37.6977Z" fill="#24B282"/>
<path d="M22.0062 25.5121C22.0252 27.4892 20.4316 29.1621 18.4397 29.2001C16.4477 29.2571 14.7593 27.6032 14.7214 25.5881C14.6834 23.611 16.2959 21.9571 18.2879 21.9191C20.3178 21.8811 21.9682 23.478 22.0062 25.5121Z" fill="#24B282"/>
<path d="M53.5927 62.088C53.6686 61.1185 53.422 60.282 52.9287 59.4076C51.7336 57.3544 52.3786 54.731 54.2947 53.3052C56.1728 51.8794 58.7718 52.0125 60.4981 53.6094C62.2435 55.2253 62.547 57.8677 61.2759 59.8638C61.0483 60.225 60.9155 60.7193 60.8776 61.1565C60.8017 62.05 60.8965 62.9625 60.7637 63.856C60.5171 65.7 58.9425 66.9547 57.0644 66.8977C55.2622 66.8406 53.7824 65.4719 53.5927 63.6469C53.5548 63.1336 53.5927 62.6013 53.5927 62.088ZM56.002 61.5938C56.002 62.069 56.002 62.5443 56.002 63.0195C56.021 63.951 56.4384 64.4643 57.2162 64.4643C57.975 64.4643 58.4113 63.951 58.4303 63.0195C58.4493 62.088 58.3734 61.1565 58.4493 60.244C58.4872 59.7688 58.6959 59.2365 58.9805 58.8563C59.8531 57.7346 59.8342 56.3089 58.8477 55.3964C57.8991 54.5219 56.4384 54.5409 55.5088 55.4534C54.5602 56.3849 54.5602 57.7727 55.4329 58.8753C55.7364 59.2555 55.8882 59.7878 55.9831 60.263C56.0589 60.6813 56.002 61.1565 56.002 61.5938Z" fill="black"/>
<path d="M56.0021 61.5937C56.0021 61.1374 56.078 60.6812 55.9831 60.2439C55.8883 59.7687 55.7365 59.2364 55.433 58.8562C54.5793 57.7726 54.5603 56.3658 55.5089 55.4343C56.4384 54.5218 57.8992 54.5028 58.8477 55.3773C59.8342 56.2898 59.8532 57.7345 58.9805 58.8372C58.677 59.2174 58.4873 59.7497 58.4494 60.2249C58.3735 61.1374 58.4304 62.0689 58.4304 63.0004C58.4114 63.9319 57.9751 64.4452 57.2163 64.4452C56.4574 64.4452 56.0211 63.951 56.0021 63.0004C55.9831 62.5442 56.0021 62.0689 56.0021 61.5937Z" fill="#24B282"/>
</g>
<defs>
<clipPath id="clip0_48_594">
<rect width="73" height="73" fill="white"/>
</clipPath>
</defs>
</svg>
