<svg width="74" height="74" viewBox="0 0 74 74" fill="none" xmlns="http://www.w3.org/2000/svg">
<g clip-path="url(#clip0_48_615)">
<path d="M31.7969 4.05256e-05C30.9875 4.05256e-05 30.1782 0.231291 29.6 0.462541C28.4438 1.04067 27.6344 2.19692 27.6344 3.93129C27.6344 5.66567 28.3281 7.16879 28.9063 8.44067C29.1375 8.90317 29.3688 9.36567 29.4844 9.82817C28.2125 10.2907 26.825 11.1 25.5532 11.7938C24.5125 12.3719 23.5875 12.95 22.8938 13.4125C22.5469 13.6438 22.0844 13.875 21.8531 13.9907C21.8531 13.4125 21.275 12.8344 20.6969 12.8344H17.2281C17.2281 12.2563 16.7656 11.6782 16.0719 11.6782H1.15627C0.578149 11.6782 2.44156e-05 12.1407 2.44156e-05 12.8344V32.4907C2.44156e-05 33.1844 0.462524 33.6469 1.15627 33.6469H16.1875C16.8813 33.6469 17.3438 33.0688 17.3438 32.4907H20.8125C21.5063 32.4907 21.9688 32.0282 21.9688 31.3344H23.125C24.2813 31.3344 25.5532 32.2594 26.2469 32.8375C26.0156 33.1844 25.7844 33.5313 25.5532 33.7625C22.6625 38.0407 19.5406 42.7813 19.5406 49.2563C19.5406 51.5688 20.0032 53.65 21.0438 55.3844C21.0438 55.5 21.0438 55.5 20.9282 55.6157C17.575 55.6157 14.9156 55.6157 12.025 55.6157C13.1813 54.3438 13.7594 52.725 13.7594 50.9907C13.7594 47.175 10.6375 44.0532 6.8219 44.0532C3.00627 44.0532 -0.115601 47.175 -0.115601 50.9907C-0.115601 52.9563 0.693774 54.6907 1.96565 55.9625C0.809399 56.3094 2.44156e-05 57.5813 2.44156e-05 58.9688V62.4375C2.44156e-05 63.3625 0.346899 64.1719 0.925025 64.75C0.346899 65.3282 2.44156e-05 66.1375 2.44156e-05 67.0625V70.5313C2.44156e-05 72.3813 1.61877 74 3.46877 74C9.48127 74 17.3438 74 21.9688 74C23.8188 74 25.4375 72.3813 25.4375 70.5313V67.0625C25.4375 66.1375 25.0907 65.3282 24.5125 64.75C24.8594 64.2875 25.2063 63.825 25.3219 63.1313C26.4781 64.2875 27.9813 65.675 29.6 67.0625C31.45 68.6813 33.3 70.4157 35.0344 71.5719C36.8844 72.9594 38.2719 73.8844 39.3125 73.8844C41.2781 73.8844 44.7469 73.3063 47.8688 72.7282C49.4875 72.3813 50.9906 72.15 52.1469 71.9188C52.8406 71.8032 53.65 71.6875 54.3438 71.5719H55.5C55.5 72.2657 56.0781 72.7282 56.6563 72.7282H60.125C60.125 73.4219 60.7031 73.8844 61.2813 73.8844H72.8438C73.5375 73.8844 74 73.3063 74 72.7282V54.3438C74 53.65 73.4219 53.1875 72.8438 53.1875H61.2813C60.5875 53.1875 60.125 53.65 60.125 54.3438H56.6563C55.9625 54.3438 55.5 54.8063 55.5 55.5V56.1938C54.575 55.9625 53.65 55.6157 52.8406 55.3844C53.7656 53.65 54.3438 51.5688 54.3438 49.2563C54.3438 42.8969 51.3375 38.2719 48.4469 33.9938C49.2563 33.3 49.7188 32.375 49.7188 31.3344C49.7188 30.4094 49.3719 29.6 48.7938 29.0219C49.3719 28.4438 49.7188 27.6344 49.7188 26.7094C49.7188 25.7844 49.3719 24.975 48.7938 24.3969C49.3719 23.8188 49.7188 23.0094 49.7188 22.0844C49.7188 20.4657 48.5625 19.0782 47.0594 18.7313C47.9844 16.7657 46.9438 15.1469 45.7875 14.2219C45.7875 14.2219 45.0938 13.6438 44.1688 12.95C44.2844 11.7938 44.7469 10.4063 45.2094 8.90316C45.7875 7.28442 46.3656 5.55004 46.3656 3.93129C46.25 2.31254 45.4406 1.15629 44.2844 0.462541C43.2438 -0.115584 41.9719 -0.115584 41.2781 0.115666C39.775 0.462541 38.7344 1.38754 37.6938 2.31254C37.4625 2.54379 37.2313 2.77504 36.8844 3.00629C35.6125 1.96567 34.5719 0.693791 32.6063 0.231291C32.375 4.05312e-05 32.1438 4.05256e-05 31.7969 4.05256e-05ZM42.0875 2.31254C42.4344 2.31254 42.8969 2.42817 43.1281 2.54379C43.475 2.65942 43.9375 3.00629 43.9375 3.93129C43.9375 4.85629 43.475 6.47504 42.8969 8.20942C42.55 9.25004 42.2031 10.4063 41.9719 11.4469C41.2781 10.9844 40.4688 10.5219 39.6594 10.175C38.7344 9.59692 37.925 9.25004 37 9.25004C35.2656 9.25004 33.5313 9.25004 31.9125 9.25004C31.5657 8.44067 31.3344 7.86254 30.9875 7.16879C32.0281 7.28442 33.3 7.16879 34.9188 6.70629C36.8844 6.01254 38.2719 4.97192 39.1969 4.04692C40.1219 3.12192 40.9313 2.54379 41.7406 2.31254C41.8563 2.31254 41.9719 2.31254 42.0875 2.31254ZM32.2594 11.5625H37C38.5031 11.6782 42.3188 14.4532 44.4 15.9563C45.0938 16.5344 45.2094 17.1125 45.0938 17.4594C44.7469 17.9219 44.1688 18.5 42.7813 18.5C41.8563 18.5 40.8157 18.1532 39.775 17.8063C38.7344 17.4594 37.8094 16.9969 36.6532 16.9969C36.1907 16.9969 35.8438 17.2282 35.6125 17.575C34.9188 18.7313 34.3407 19.1938 33.7625 19.425C33.1844 19.6563 32.375 19.6563 31.2188 19.6563C30.525 19.6563 30.0625 20.1188 30.0625 20.8125C30.0625 21.3907 30.525 21.9688 31.2188 21.9688C30.8719 25.2063 29.4844 27.9813 27.6344 30.7563C26.1313 29.8313 24.975 28.9063 23.125 28.9063H21.9688V16.1875C22.4313 16.1875 22.7782 16.0719 23.125 15.8407C23.4719 15.725 23.8188 15.4938 24.1656 15.2625C24.975 14.8 25.9 14.2219 26.825 13.6438C28.7907 12.6032 31.1031 11.5625 32.2594 11.5625ZM67.0625 12.7188C66.3688 12.7188 65.9063 13.2969 65.9063 13.875V15.0313C65.9063 15.6094 66.3688 16.1875 67.0625 16.1875C67.7563 16.1875 68.2188 15.725 68.2188 15.0313V13.875C68.2188 13.1813 67.7563 12.7188 67.0625 12.7188ZM57.8125 12.7188C57.1188 12.7188 56.6563 13.2969 56.6563 13.875V15.0313C56.6563 15.6094 57.1188 16.1875 57.8125 16.1875C58.5063 16.1875 58.9688 15.725 58.9688 15.0313V13.875C58.9688 13.1813 58.3906 12.7188 57.8125 12.7188ZM17.3438 15.0313H19.6563V30.0625H17.3438V15.0313ZM62.4375 17.3438C58.6219 17.3438 55.5 20.4657 55.5 24.2813C55.5 28.0969 58.6219 31.2188 62.4375 31.2188C66.2532 31.2188 69.375 28.0969 69.375 24.2813C69.375 20.4657 66.2532 17.3438 62.4375 17.3438ZM43.9375 20.8125H46.25C46.9438 20.8125 47.4063 21.275 47.4063 21.9688C47.4063 22.6625 46.9438 23.125 46.25 23.125H43.9375C43.2438 23.125 42.7813 22.6625 42.7813 21.9688C42.7813 21.275 43.2438 20.8125 43.9375 20.8125ZM43.9375 25.4375H46.25C46.9438 25.4375 47.4063 25.9 47.4063 26.5938C47.4063 27.2875 46.9438 27.75 46.25 27.75H43.9375C43.2438 27.75 42.7813 27.2875 42.7813 26.5938C42.7813 25.9 43.2438 25.4375 43.9375 25.4375ZM43.9375 30.0625H46.25C46.9438 30.0625 47.4063 30.525 47.4063 31.2188C47.4063 31.9125 46.9438 32.375 46.25 32.375H43.9375C43.2438 32.375 42.7813 31.9125 42.7813 31.2188C42.7813 30.525 43.2438 30.0625 43.9375 30.0625ZM11.5625 39.3125C10.8688 39.3125 10.4063 39.8907 10.4063 40.4688V41.625C10.4063 42.3188 10.9844 42.7813 11.5625 42.7813C12.1406 42.7813 12.7188 42.3188 12.7188 41.625V40.4688C12.7188 39.775 12.2563 39.3125 11.5625 39.3125ZM2.31252 39.3125C1.61877 39.3125 1.15627 39.8907 1.15627 40.4688V41.625C1.15627 42.3188 1.7344 42.7813 2.31252 42.7813C2.89065 42.7813 3.46877 42.3188 3.46877 41.625V40.4688C3.46877 39.8907 2.89065 39.3125 2.31252 39.3125ZM24.7438 55.5C24.975 55.5 25.3219 55.5 25.6688 55.6157L36.3063 58.6219C35.9594 59.3157 35.8438 60.2407 36.075 61.05C36.5375 62.9 38.5032 64.0563 40.3531 63.4782L47.0594 61.6282C47.6375 61.5125 48.1 60.8188 47.8688 60.2407C47.7532 59.6625 47.0594 59.2 46.4813 59.4313L39.6594 61.2813C38.9656 61.3969 38.3875 61.05 38.2719 60.4719C38.1563 59.7782 38.5031 59.2 39.0813 59.0844C39.0813 59.0844 40.8156 58.5063 42.8969 57.9282C44.9781 57.35 47.4063 56.7719 48.5625 56.7719C49.6031 56.7719 50.9906 57.2344 52.3781 57.6969C53.4188 58.0438 54.4594 58.5063 55.5 58.6219V69.375H54.3438C53.4188 69.375 52.6094 69.6063 51.8 69.7219C50.6438 69.9532 49.025 70.1844 47.5219 70.5313C44.4 71.1094 40.8156 71.6875 39.4281 71.6875C38.5031 71.3407 37.3469 70.5313 36.5375 69.8375C35.0344 68.6813 33.0688 67.0625 31.3344 65.4438C28.9063 63.3625 26.5938 61.05 24.3969 58.8532C23.3563 57.9282 23.125 57.2344 23.3563 56.1938C23.3563 55.6157 24.05 55.5 24.7438 55.5ZM57.8125 56.6563H60.125V70.5313H57.8125V56.6563ZM3.46877 57.8125H5.78127V60.125C5.78127 60.8188 6.24377 61.2813 6.93752 61.2813C7.63127 61.2813 8.09377 60.7032 8.09377 60.125V57.8125H11.5625V60.125C11.5625 60.8188 12.025 61.2813 12.7188 61.2813C13.4125 61.2813 13.875 60.8188 13.875 60.125V57.8125H17.3438V60.125C17.3438 60.8188 17.8063 61.2813 18.5 61.2813C19.1938 61.2813 19.6563 60.8188 19.6563 60.125V57.8125H20.9282C21.275 58.9688 21.6219 59.6625 23.125 61.05V62.4375C23.125 63.1313 22.6625 63.5938 21.9688 63.5938H3.46877C2.77502 63.5938 2.31252 63.1313 2.31252 62.4375V58.9688C2.31252 58.275 2.77502 57.8125 3.46877 57.8125ZM3.46877 65.9063C4.27815 65.9063 4.9719 65.9063 5.78127 65.9063V68.2188C5.78127 68.9125 6.3594 69.375 6.93752 69.375C7.51565 69.375 8.09377 68.9125 8.09377 68.2188V65.9063H11.5625V68.2188C11.5625 68.7969 12.025 69.375 12.7188 69.375C13.4125 69.375 13.875 68.9125 13.875 68.2188V65.9063H17.3438V68.2188C17.3438 68.7969 17.8063 69.375 18.5 69.375C19.1938 69.375 19.6563 68.9125 19.6563 68.2188V65.9063H21.9688C22.6625 65.9063 23.125 66.3688 23.125 67.0625V70.5313C23.125 71.225 22.6625 71.6875 21.9688 71.6875C17.3438 71.6875 9.48127 71.6875 3.46877 71.6875C2.77502 71.6875 2.31252 71.225 2.31252 70.5313V67.0625C2.31252 66.3688 2.77502 65.9063 3.46877 65.9063Z" fill="black"/>
<path d="M62.4375 29.2531C65.1833 29.2531 67.4093 27.0271 67.4093 24.2812C67.4093 21.5353 65.1833 19.3093 62.4375 19.3093C59.6916 19.3093 57.4656 21.5353 57.4656 24.2812C57.4656 27.0271 59.6916 29.2531 62.4375 29.2531Z" fill="white"/>
<path d="M6.93745 55.4999C9.68334 55.4999 11.9093 53.2739 11.9093 50.528C11.9093 47.7821 9.68334 45.5562 6.93745 45.5562C4.19156 45.5562 1.96558 47.7821 1.96558 50.528C1.96558 53.2739 4.19156 55.4999 6.93745 55.4999Z" fill="white"/>
<path d="M15.2625 13.875H0V31.2188H15.2625V13.875Z" fill="white"/>
<path d="M74 54.9219H61.975V72.2656H74V54.9219Z" fill="white"/>
<path d="M48.9094 55.5C43.0125 55.9625 37.2312 58.275 32.375 56.6562C29.6 55.7313 24.7437 54.575 22.6625 52.725C20.9281 51.3375 21.5062 48.9094 21.8531 46.25C22.2 43.2437 25.2062 37.8094 28.9062 31.7969C31.9125 26.9406 33.8781 21.8531 36.6531 19.8875C37.3469 19.425 39.775 19.3094 40.2375 20.0031C41.7406 22.5469 41.3937 26.2469 41.5094 33.0688C41.5094 34.4563 43.7062 33.4156 46.1344 34.4562C48.2156 35.3812 50.9906 40.3531 51.5687 41.625C52.725 45.0938 54.9219 55.0375 48.9094 55.5Z" fill="#24B282"/>
<path d="M39.3125 42.7812H38.1562V38.1562H39.3125C40.0063 38.1562 40.4688 38.6188 40.4688 39.3125C40.4688 40.0062 41.0469 40.4688 41.625 40.4688C42.2031 40.4688 42.7812 40.0062 42.7812 39.3125C42.7812 37.4625 41.1625 35.8438 39.3125 35.8438H38.1562V34.6875C38.1562 33.9937 37.6937 33.5312 37 33.5312C36.3063 33.5312 35.8438 34.1094 35.8438 34.6875V35.8438H34.6875C32.8375 35.8438 31.2188 37.4625 31.2188 39.3125V41.625C31.2188 43.475 32.8375 45.0938 34.6875 45.0938H35.8438V49.7188H34.6875C33.9937 49.7188 33.5312 49.2563 33.5312 48.5625C33.5312 47.8687 33.0688 47.4062 32.375 47.4062C31.6812 47.4062 31.2188 47.9844 31.2188 48.5625C31.2188 50.4125 32.8375 52.0312 34.6875 52.0312H35.8438V53.1875C35.8438 53.8813 36.3063 54.3438 37 54.3438C37.6937 54.3438 38.1562 53.7656 38.1562 53.1875V52.0312H39.3125C41.1625 52.0312 42.7812 50.4125 42.7812 48.5625V46.25C42.7812 44.4 41.1625 42.7812 39.3125 42.7812ZM35.8438 42.7812H34.6875C33.9937 42.7812 33.5312 42.3188 33.5312 41.625V39.3125C33.5312 38.6188 33.9937 38.1562 34.6875 38.1562H35.8438V42.7812ZM40.4688 48.5625C40.4688 49.2563 40.0063 49.7188 39.3125 49.7188H38.1562V45.0938H39.3125C40.0063 45.0938 40.4688 45.5562 40.4688 46.25V48.5625Z" fill="white"/>
<path d="M62.4375 9.25C61.7437 9.25 61.2812 9.82812 61.2812 10.4062V11.5625C61.2812 12.2563 61.7437 12.7188 62.4375 12.7188C63.1313 12.7188 63.5938 12.2563 63.5938 11.5625V10.4062C63.5938 9.7125 63.0156 9.25 62.4375 9.25Z" fill="#24B282"/>
<path d="M6.9375 35.8438C6.24375 35.8438 5.78125 36.4219 5.78125 37V38.1562C5.78125 38.85 6.24375 39.3125 6.9375 39.3125C7.63125 39.3125 8.09375 38.7344 8.09375 38.1562V37C8.09375 36.4219 7.63125 35.8438 6.9375 35.8438Z" fill="#24B282"/>
</g>
<defs>
<clipPath id="clip0_48_615">
<rect width="74" height="74" fill="white"/>
</clipPath>
</defs>
</svg>
