<svg width="86" height="86" viewBox="0 0 86 86" fill="none" xmlns="http://www.w3.org/2000/svg">
<path d="M73.2344 65.6758C74.1619 65.6758 74.9141 64.9236 74.9141 63.9961V6.88672C74.9141 5.95903 74.1619 5.20703 73.2344 5.20703H24.5234C23.5957 5.20703 22.8438 5.95903 22.8438 6.88672V13.6055H17.8047C16.877 13.6055 16.125 14.3575 16.125 15.2852V20.3242H11.0859C10.1582 20.3242 9.40625 21.0762 9.40625 22.0039V77.4336C9.40625 78.3611 10.1582 79.1133 11.0859 79.1133H58.1172C59.0447 79.1133 59.7969 78.3611 59.7969 77.4336V72.3945H64.8359C65.7635 72.3945 66.5156 71.6424 66.5156 70.7148V65.6758H73.2344ZM26.2031 62.3164V58.957H71.5547V62.3164H26.2031ZM26.2031 8.56641H64.8359V20.3242C64.8359 21.2519 65.5881 22.0039 66.5156 22.0039C67.4431 22.0039 68.1953 21.2519 68.1953 20.3242V8.56641H71.5547V55.5977H26.2031V8.56641ZM56.4375 75.7539H12.7656V23.6836H16.125V70.7148C16.125 71.6424 16.877 72.3945 17.8047 72.3945H56.4375V75.7539ZM63.1562 69.0352H19.4844V16.9648H22.8438V63.9961C22.8438 64.9236 23.5957 65.6758 24.5234 65.6758H63.1562V69.0352Z" fill="black"/>
<path d="M64.8359 80.793C65.7636 80.793 66.5156 80.0409 66.5156 79.1133C66.5156 78.1856 65.7636 77.4336 64.8359 77.4336C63.9083 77.4336 63.1562 78.1856 63.1562 79.1133C63.1562 80.0409 63.9083 80.793 64.8359 80.793Z" fill="black"/>
<path d="M78.2734 15.2852C79.2011 15.2852 79.9531 14.5331 79.9531 13.6055C79.9531 12.6778 79.2011 11.9258 78.2734 11.9258C77.3458 11.9258 76.5938 12.6778 76.5938 13.6055C76.5938 14.5331 77.3458 15.2852 78.2734 15.2852Z" fill="black"/>
<path d="M19.4844 10.2461C20.412 10.2461 21.1641 9.49407 21.1641 8.56641C21.1641 7.63874 20.412 6.88672 19.4844 6.88672C18.5567 6.88672 17.8047 7.63874 17.8047 8.56641C17.8047 9.49407 18.5567 10.2461 19.4844 10.2461Z" fill="black"/>
<path d="M6.04688 50.5586C6.97454 50.5586 7.72656 49.8066 7.72656 48.8789C7.72656 47.9512 6.97454 47.1992 6.04688 47.1992C5.11921 47.1992 4.36719 47.9512 4.36719 48.8789C4.36719 49.8066 5.11921 50.5586 6.04688 50.5586Z" fill="black"/>
<path d="M54.7578 48.8789C55.6855 48.8789 56.4375 48.1269 56.4375 47.1992C56.4375 46.2716 55.6855 45.5195 54.7578 45.5195C53.8301 45.5195 53.0781 46.2716 53.0781 47.1992C53.0781 48.1269 53.8301 48.8789 54.7578 48.8789Z" fill="#24B282"/>
<path d="M32.9219 22.0039H54.7578C55.6853 22.0039 56.4375 21.2519 56.4375 20.3242C56.4375 19.3965 55.6853 18.6445 54.7578 18.6445H32.9219C31.9942 18.6445 31.2422 19.3965 31.2422 20.3242C31.2422 21.2519 31.9942 22.0039 32.9219 22.0039Z" fill="#24B282"/>
<path d="M32.9219 28.7227H61.4766C62.4041 28.7227 63.1562 27.9707 63.1562 27.043C63.1562 26.1153 62.4041 25.3633 61.4766 25.3633H32.9219C31.9942 25.3633 31.2422 26.1153 31.2422 27.043C31.2422 27.9707 31.9942 28.7227 32.9219 28.7227Z" fill="#24B282"/>
<path d="M32.9219 35.4414H64.8359C65.7635 35.4414 66.5156 34.6894 66.5156 33.7617C66.5156 32.834 65.7635 32.082 64.8359 32.082H32.9219C31.9942 32.082 31.2422 32.834 31.2422 33.7617C31.2422 34.6894 31.9942 35.4414 32.9219 35.4414Z" fill="#24B282"/>
<path d="M32.9219 42.1602H58.1172C59.0447 42.1602 59.7969 41.4082 59.7969 40.4805C59.7969 39.5528 59.0447 38.8008 58.1172 38.8008H32.9219C31.9942 38.8008 31.2422 39.5528 31.2422 40.4805C31.2422 41.4082 31.9942 42.1602 32.9219 42.1602Z" fill="#24B282"/>
<path d="M32.9219 48.8789H49.7188C50.6463 48.8789 51.3984 48.1267 51.3984 47.1992C51.3984 46.2717 50.6463 45.5195 49.7188 45.5195H32.9219C31.9942 45.5195 31.2422 46.2717 31.2422 47.1992C31.2422 48.1267 31.9942 48.8789 32.9219 48.8789Z" fill="#24B282"/>
<path d="M9.40625 16.9648C12.1848 16.9648 14.4453 14.7043 14.4453 11.9258C14.4453 9.14724 12.1848 6.88672 9.40625 6.88672C6.62771 6.88672 4.36719 9.14724 4.36719 11.9258C4.36719 14.7043 6.62771 16.9648 9.40625 16.9648ZM9.40625 10.2461C10.3324 10.2461 11.0859 10.9996 11.0859 11.9258C11.0859 12.852 10.3324 13.6055 9.40625 13.6055C8.48007 13.6055 7.72656 12.852 7.72656 11.9258C7.72656 10.9996 8.48007 10.2461 9.40625 10.2461Z" fill="#24B282"/>
<path d="M75.7539 67.3555C72.5123 67.3555 69.875 69.9927 69.875 73.2344C69.875 76.476 72.5123 79.1133 75.7539 79.1133C78.9955 79.1133 81.6328 76.476 81.6328 73.2344C81.6328 69.9927 78.9955 67.3555 75.7539 67.3555ZM75.7539 75.7539C74.3646 75.7539 73.2344 74.6236 73.2344 73.2344C73.2344 71.8451 74.3646 70.7148 75.7539 70.7148C77.1432 70.7148 78.2734 71.8451 78.2734 73.2344C78.2734 74.6236 77.1432 75.7539 75.7539 75.7539Z" fill="#24B282"/>
</svg>
