<svg width="30" height="34" viewBox="0 0 30 34" fill="none" xmlns="http://www.w3.org/2000/svg">
<g clip-path="url(#clip0_32_157)">
<path d="M3.01986 18.5992C2.91643 18.7044 2.79364 18.7879 2.6585 18.8448C2.52336 18.9017 2.37852 18.931 2.23225 18.931C2.08598 18.931 1.94114 18.9017 1.806 18.8448C1.67086 18.7879 1.54807 18.7044 1.44464 18.5992C1.34121 18.4941 1.25916 18.3692 1.20319 18.2317C1.14721 18.0943 1.1184 17.947 1.1184 17.7982C1.1184 17.6495 1.14721 17.5021 1.20319 17.3647C1.25916 17.2273 1.34121 17.1024 1.44464 16.9972L15.7795 2.42103C17.3651 0.871789 19.4864 0.0192295 21.685 0.0475591C23.8836 0.0758887 25.983 0.982833 27.5296 2.57243C29.0761 4.16202 29.9456 6.30663 29.9502 8.54286C29.9548 10.7791 29.0942 12.9274 27.5542 14.5236L10.3519 32.0244L10.2621 32.1074C8.96436 33.2723 7.60951 33.9308 6.18119 33.9944C4.75288 34.0581 3.29192 33.5047 1.85817 32.2402L1.83912 32.2236L1.79832 32.1821C1.16739 31.5555 0.672496 30.8015 0.345518 29.9685C0.0384601 29.1636 -0.0671785 28.2936 0.0380907 27.4368C0.158959 26.3943 0.532935 25.3988 1.12633 24.5398C1.64474 23.8071 2.23049 23.1261 2.87567 22.5061L18.8401 6.26429C19.5014 5.59352 20.3959 5.21477 21.3299 5.2101C22.2638 5.20544 23.162 5.57525 23.8297 6.23938L23.8542 6.26429C24.5069 6.92734 24.8791 7.82356 24.8913 8.76176C24.9035 9.69997 24.5548 10.6059 23.9195 11.2863L23.8542 11.361L10.1043 25.3395C10.0009 25.4447 9.87807 25.5281 9.74293 25.585C9.60779 25.642 9.46295 25.6713 9.31668 25.6713C9.17041 25.6713 9.02557 25.642 8.89043 25.585C8.75529 25.5281 8.6325 25.4447 8.52907 25.3395C8.42564 25.2343 8.34359 25.1094 8.28761 24.972C8.23164 24.8345 8.20283 24.6872 8.20283 24.5385C8.20283 24.3897 8.23164 24.2424 8.28761 24.1049C8.34359 23.9675 8.42564 23.8426 8.52907 23.7374L22.3089 9.71741C22.5338 9.46239 22.6553 9.13008 22.6487 8.78755C22.6421 8.44503 22.5081 8.11778 22.2735 7.87187C22.0267 7.62197 21.6927 7.48167 21.3444 7.48167C20.9962 7.48167 20.6621 7.62197 20.4153 7.87187L4.44273 24.1054C3.89932 24.6283 3.40309 25.1996 2.96001 25.8126C2.5727 26.3731 2.32782 27.0223 2.24721 27.7024C2.18734 28.1938 2.24713 28.6927 2.42133 29.1551C2.63536 29.6817 2.95185 30.1588 3.35178 30.5579C4.32031 31.4046 5.23171 31.7754 6.09686 31.7366C6.96201 31.6979 7.86796 31.2358 8.7848 30.4113L25.979 12.9243C27.1005 11.7516 27.7253 10.1784 27.7192 8.54243C27.7131 6.90648 27.0766 5.33816 25.9463 4.17413C24.816 3.01011 23.2821 2.34317 21.6737 2.31648C20.0654 2.28979 18.5108 2.90548 17.3438 4.03138L3.01986 18.5992Z" fill="#606060"/>
</g>
<defs>
<clipPath id="clip0_32_157">
<rect width="30" height="34" fill="white"/>
</clipPath>
</defs>
</svg>
