<?xml version="1.0" encoding="utf-8"?>
<!-- Generator: Adobe Illustrator 26.0.2, SVG Export Plug-In . SVG Version: 6.00 Build 0)  -->
<svg version="1.1" id="Layer_1" xmlns="http://www.w3.org/2000/svg" xmlns:xlink="http://www.w3.org/1999/xlink" x="0px" y="0px"
	 viewBox="0 0 52 52" style="enable-background:new 0 0 52 52;" xml:space="preserve">
<style type="text/css">
	.st0{fill-rule:evenodd;clip-rule:evenodd;}
</style>
<path class="st0" d="M26,0c14.4,0,26,11.6,26,26S40.4,52,26,52S0,40.4,0,26S11.6,0,26,0z M27.3,12.3c1.6,0.2,2.9,0.6,4.2,1.3
	c1.4,0.7,2.3,1.3,3.4,2.5c1.1,1.1,1.7,1.9,2.3,3.2c0.9,1.8,1.4,3.9,1.5,6.3c0,0.8,0,1-0.2,1.2c-0.3,0.4-1.1,0.4-1.4-0.1
	c-0.1-0.2-0.1-0.3-0.1-0.9c0-1-0.1-1.6-0.3-2.4c-0.5-3-2-5.4-4.3-7.1c-1.9-1.4-3.9-2.1-6.4-2.3c-0.9-0.1-1-0.1-1.2-0.2
	c-0.4-0.3-0.4-1,0-1.3c0.2-0.2,0.4-0.2,1.1-0.2C26.4,12.2,27,12.3,27.3,12.3L27.3,12.3z M16.8,12.8c0.2,0.1,0.4,0.2,0.6,0.3
	c0.9,0.6,3.3,3.7,4.1,5.2c0.5,0.9,0.6,1.5,0.5,2c-0.1,0.5-0.4,0.8-1.5,1.7c-0.4,0.4-0.8,0.7-0.9,0.8c-0.2,0.2-0.3,0.7-0.3,1
	c0,0.8,0.5,2.2,1.2,3.2c0.5,0.8,1.4,1.9,2.3,2.7c1.1,1,2,1.6,3,2.1c1.3,0.7,2.2,0.8,2.8,0.6c0.2-0.1,0.3-0.2,0.4-0.2
	c0,0,0.4-0.5,0.8-0.9c0.7-0.9,0.9-1.1,1.4-1.3c0.6-0.2,1.3-0.2,2,0.2c0.5,0.3,1.6,0.9,2.3,1.4c0.9,0.7,2.9,2.3,3.2,2.6
	c0.5,0.6,0.6,1.3,0.2,2.2c-0.3,0.9-1.7,2.5-2.6,3.2c-0.8,0.6-1.4,0.9-2.2,0.9c-0.6,0-0.9,0-1.7-0.4c-6.4-2.6-11.6-6.6-15.7-12
	c-2.1-2.8-3.8-5.8-4.9-8.8c-0.6-1.8-0.7-2.6-0.1-3.5c0.2-0.4,1.2-1.3,1.9-1.9c1.2-0.9,1.7-1.2,2.2-1.3C16,12.6,16.5,12.7,16.8,12.8
	L16.8,12.8z M27.6,15.6c2.8,0.4,4.9,1.7,6.3,3.8c0.8,1.2,1.3,2.6,1.5,4.1c0.1,0.5,0.1,1.5,0,1.7c-0.1,0.2-0.3,0.4-0.4,0.5
	c-0.2,0.1-0.6,0.1-0.8,0c-0.4-0.2-0.5-0.5-0.5-1.2c0-1.2-0.3-2.4-0.8-3.4c-0.6-1.1-1.5-2-2.6-2.7c-0.9-0.5-2.3-1-3.5-1.1
	c-0.4,0-0.7-0.1-0.9-0.3c-0.3-0.3-0.3-0.7-0.1-1C26.1,15.5,26.5,15.4,27.6,15.6L27.6,15.6z M28.6,19.1c0.9,0.2,1.6,0.5,2.2,1.1
	c0.8,0.7,1.2,1.6,1.4,2.8c0.1,0.8,0.1,1.1-0.2,1.4c-0.3,0.2-0.8,0.3-1.1,0c-0.2-0.2-0.3-0.3-0.3-0.8c-0.1-0.6-0.2-1.1-0.4-1.5
	c-0.4-0.9-1.1-1.3-2.3-1.5c-0.6-0.1-0.7-0.1-0.9-0.3c-0.3-0.4-0.2-1,0.3-1.3c0.2-0.1,0.2-0.1,0.6-0.1C28.1,19,28.3,19,28.6,19.1
	L28.6,19.1z"/>
</svg>
