<svg width="160" height="178" viewBox="0 0 160 178" fill="none" xmlns="http://www.w3.org/2000/svg">
<g opacity="0.5">
<g clip-path="url(#clip0_33_49)">
<path d="M122.1 147.5C144.6 133.4 159.7 108.3 159.7 79.8C159.7 35.8 123.9 0 79.9 0C35.8 0 0 35.8 0 79.8C0 123.8 35.8 159.6 79.8 159.6C82.7 159.6 85.6 159.4 88.5 159.1L139 178L122.1 147.5ZM12 79.8C12 42.4 42.4 12 79.8 12C117.2 12 147.6 42.4 147.6 79.8C147.6 117.2 117.2 147.6 79.8 147.6C42.4 147.7 12 117.3 12 79.8Z" fill="#CCCDCE"/>
<path d="M70.6 122V59H89.8V122H70.6ZM70.6 51.8V34.4H89.8V51.8H70.6Z" fill="#CCCDCE"/>
</g>
</g>
<defs>
<clipPath id="clip0_33_49">
<rect width="159.7" height="178" fill="white"/>
</clipPath>
</defs>
</svg>
