<svg width="190" height="99" viewBox="0 0 190 99" fill="none" xmlns="http://www.w3.org/2000/svg">
<g clip-path="url(#clip0_11_39)">
<path d="M34.5022 62.5804C34.2433 62.834 33.9364 63.0334 33.5994 63.1669C33.2624 63.3003 32.9021 63.3651 32.5398 63.3575C31.8917 63.3855 31.2554 63.1778 30.7487 62.7728C30.2419 62.3678 29.899 61.793 29.7834 61.1547C29.6385 60.0934 29.5899 59.0211 29.638 57.9511C29.638 55.3289 29.7275 54.4399 30.4991 53.6627C31.4999 52.6675 33.6692 52.6954 34.8601 52.5948V53.3217C33.8928 53.4111 31.9303 53.3217 31.0973 54.1547C30.4264 54.8257 30.3649 55.832 30.3649 57.1627C30.5934 56.8528 30.8829 56.5929 31.2156 56.3991C31.5483 56.2052 31.917 56.0814 32.2993 56.0353C32.6816 55.9892 33.0693 56.0218 33.4385 56.131C33.8077 56.2403 34.1507 56.424 34.4463 56.6707C35.0837 57.2801 35.3856 58.348 35.3856 59.6787C35.3856 61.0093 35.1284 61.9542 34.5022 62.5804ZM33.999 57.2801C33.6086 56.8996 33.0849 56.6867 32.5398 56.6867C31.9946 56.6867 31.471 56.8996 31.0805 57.2801C30.6332 57.7442 30.3984 58.4598 30.3984 59.7234C30.3984 60.9869 30.6165 61.6131 31.0805 62.0884C31.4696 62.4715 31.9937 62.6862 32.5398 62.6862C33.0858 62.6862 33.6099 62.4715 33.999 62.0884C34.4575 61.6299 34.6252 60.9702 34.6252 59.7514C34.6252 58.5325 34.4743 57.7553 33.999 57.2801Z" fill="#606060"/>
<path d="M45.0581 62.5692C44.5172 63.0763 43.8035 63.3585 43.0621 63.3585C42.3207 63.3585 41.607 63.0763 41.0661 62.5692C40.4734 61.971 40.2051 61.1548 40.1771 59.9024H38.5837V63.257H37.8233V56.0892H38.5837V59.2594H40.1883C40.1442 58.3522 40.4596 57.4642 41.0661 56.7881C41.3305 56.5317 41.6429 56.3301 41.9855 56.1948C42.328 56.0595 42.6939 55.9932 43.0621 55.9998C44.9071 55.9998 45.9527 57.3137 45.9527 59.6339C45.9527 61.0652 45.6843 61.9263 45.0581 62.5692ZM44.5493 57.2801C44.1528 56.8895 43.6187 56.6706 43.0621 56.6706C42.5055 56.6706 41.9713 56.8895 41.5749 57.2801C41.1108 57.7554 40.9319 58.3984 40.9319 59.6787C40.9319 60.9591 41.0997 61.5853 41.5749 62.0773C41.9713 62.4679 42.5055 62.6868 43.0621 62.6868C43.6187 62.6868 44.1528 62.4679 44.5493 62.0773C45.0134 61.5965 45.1923 60.959 45.1923 59.7066C45.1923 58.4542 45.0301 57.7721 44.5493 57.2801Z" fill="#606060"/>
<path d="M51.2642 63.3575C50.8573 63.3955 50.4477 63.3212 50.0801 63.1428C49.7124 62.9644 49.4007 62.6887 49.1787 62.3456V66.6898H48.4183V56.0669H49.1787V56.9893C49.3993 56.6489 49.7084 56.3749 50.0728 56.1966C50.4372 56.0184 50.8432 55.9426 51.2474 55.9774C53.0924 55.9774 53.987 57.1851 53.987 59.6731C53.987 62.1611 53.0812 63.3575 51.2642 63.3575ZM51.2027 56.6483C49.8049 56.6483 49.1787 57.5708 49.1787 59.6563C49.1787 61.7417 49.7881 62.6643 51.2027 62.6643C52.6172 62.6643 53.2266 61.7417 53.2266 59.6731C53.2266 57.6044 52.6172 56.6707 51.2027 56.6707V56.6483Z" fill="#606060"/>
<path d="M60.9199 62.5692C60.3799 63.0759 59.6672 63.358 58.9267 63.358C58.1862 63.358 57.4735 63.0759 56.9335 62.5692C56.3073 61.943 56.0389 61.0653 56.0389 59.6787C56.0389 58.2921 56.3073 57.4423 56.9335 56.7881C57.1979 56.5317 57.5103 56.3301 57.8528 56.1948C58.1954 56.0595 58.5612 55.9932 58.9295 55.9998C60.7745 55.9998 61.8145 57.3137 61.8145 59.6339C61.8145 61.0652 61.5461 61.9263 60.9199 62.5692ZM60.4167 57.2801C60.0193 56.8892 59.4842 56.67 58.9267 56.67C58.3693 56.67 57.8341 56.8892 57.4367 57.2801C56.9782 57.7554 56.7993 58.3984 56.7993 59.6787C56.7993 60.9591 56.9615 61.5853 57.4367 62.0773C57.8341 62.4682 58.3693 62.6873 58.9267 62.6873C59.4842 62.6873 60.0193 62.4682 60.4167 62.0773C60.8752 61.5965 61.0541 60.959 61.0541 59.7066C61.0541 58.4542 60.8919 57.7721 60.4167 57.2801Z" fill="#606060"/>
<path d="M72.7561 63.2681V56.7322H68.8424V63.2681H68.0875V56.0892H73.4997V63.2681H72.7561Z" fill="#606060"/>
<path d="M76.7425 59.8408C76.7206 60.3597 76.8062 60.8775 76.9941 61.3616C77.1558 61.7778 77.448 62.1302 77.8271 62.3662C78.2062 62.6021 78.6515 62.7086 79.0963 62.6699C79.442 62.675 79.7854 62.6143 80.1083 62.491C80.4684 62.3309 80.7919 62.0987 81.0588 61.8088L81.6179 62.2561C81.2846 62.6272 80.8744 62.921 80.4158 63.1172C79.9833 63.2864 79.5215 63.3681 79.0572 63.3575C77.0332 63.3575 75.9766 62.0884 75.9766 59.6339C75.9766 57.3975 77.0612 55.9997 78.8503 55.9997C80.6394 55.9997 81.7241 57.3248 81.7241 59.4997V59.8408H76.7425ZM80.8351 58.2026C80.73 57.7921 80.4997 57.4246 80.1763 57.1509C79.8528 56.8772 79.4521 56.711 79.0299 56.6753C78.6076 56.6397 78.1848 56.7364 77.82 56.952C77.4552 57.1675 77.1665 57.4913 76.9941 57.8784C76.8176 58.3072 76.732 58.7678 76.7425 59.2314H80.9693C80.9749 58.8837 80.9297 58.5372 80.8351 58.2026Z" fill="#606060"/>
<path d="M87.0244 63.3575C86.6184 63.3944 86.2101 63.3197 85.8435 63.1413C85.4769 62.963 85.166 62.6878 84.9445 62.3456V66.6898H84.1841V56.0669H84.9445V56.9893C85.1651 56.6489 85.4742 56.3749 85.8386 56.1966C86.203 56.0184 86.6091 55.9426 87.0132 55.9774C88.8583 55.9774 89.7528 57.1851 89.7528 59.6731C89.7528 62.1611 88.8414 63.3575 87.0244 63.3575ZM86.9685 56.6483C85.5707 56.6483 84.9445 57.5708 84.9445 59.6563C84.9445 61.7417 85.5539 62.6643 86.9685 62.6643C88.383 62.6643 88.9924 61.7417 88.9924 59.6731C88.9924 57.6044 88.383 56.6707 86.9685 56.6707V56.6483Z" fill="#606060"/>
<path d="M92.5651 59.8408C92.5431 60.3597 92.6288 60.8775 92.8167 61.3616C92.9774 61.7773 93.2686 62.1296 93.6467 62.3655C94.0248 62.6015 94.4694 62.7083 94.9134 62.6699C95.2591 62.676 95.6027 62.6152 95.9253 62.491C96.288 62.3327 96.6137 62.1003 96.8814 61.8088L97.4405 62.2561C97.1237 62.6213 96.7295 62.9112 96.2865 63.1046C95.8435 63.2981 95.3629 63.3902 94.8798 63.3743C92.8558 63.3743 91.7991 62.1052 91.7991 59.6507C91.7991 57.4143 92.8838 56.0165 94.6729 56.0165C96.4621 56.0165 97.5467 57.3416 97.5467 59.5165V59.8576L92.5651 59.8408ZM96.6578 58.2026C96.5527 57.7921 96.3224 57.4246 95.9989 57.1509C95.6754 56.8772 95.2747 56.711 94.8525 56.6753C94.4303 56.6397 94.0074 56.7364 93.6426 56.952C93.2778 57.1675 92.9892 57.4913 92.8167 57.8784C92.6403 58.3072 92.5546 58.7678 92.5651 59.2314H96.792C96.7975 58.8837 96.7523 58.5372 96.6578 58.2026Z" fill="#606060"/>
<path d="M103.339 63.2681H99.9844V56.0892H103.244C104.48 56.0892 105.313 56.8217 105.313 57.9343C105.322 58.301 105.206 58.6598 104.984 58.9523C104.763 59.2447 104.449 59.4535 104.094 59.5445C104.484 59.6463 104.828 59.8767 105.07 60.1984C105.313 60.52 105.439 60.9141 105.43 61.3168C105.452 62.5245 104.664 63.2681 103.339 63.2681ZM103.099 56.7322H100.762V59.2314H103.099C104.055 59.2314 104.575 58.7729 104.575 57.979C104.575 57.185 104.038 56.7322 103.099 56.7322ZM103.177 59.8743H100.762V62.6252H103.177C103.368 62.6424 103.56 62.6196 103.742 62.5583C103.924 62.4971 104.091 62.3986 104.233 62.2692C104.374 62.1398 104.487 61.9823 104.565 61.8068C104.642 61.6312 104.682 61.4415 104.682 61.2497C104.682 61.0579 104.642 60.8682 104.565 60.6927C104.487 60.5171 104.374 60.3597 104.233 60.2303C104.091 60.1009 103.924 60.0024 103.742 59.9412C103.56 59.8799 103.368 59.8571 103.177 59.8743Z" fill="#606060"/>
<path d="M112.436 62.5692C111.895 63.0763 111.181 63.3585 110.44 63.3585C109.698 63.3585 108.985 63.0763 108.444 62.5692C107.817 61.943 107.549 61.0653 107.549 59.6787C107.549 58.2921 107.817 57.4423 108.444 56.7881C108.708 56.5317 109.02 56.3301 109.363 56.1948C109.705 56.0595 110.071 55.9932 110.44 55.9998C112.285 55.9998 113.325 57.3137 113.325 59.6339C113.325 61.0652 113.056 61.9263 112.436 62.5692ZM111.927 57.2801C111.529 56.8892 110.994 56.67 110.437 56.67C109.879 56.67 109.344 56.8892 108.947 57.2801C108.488 57.7554 108.309 58.3984 108.309 59.6787C108.309 60.9591 108.472 61.5853 108.947 62.0773C109.344 62.4682 109.879 62.6873 110.437 62.6873C110.994 62.6873 111.529 62.4682 111.927 62.0773C112.391 61.5965 112.57 60.959 112.57 59.7066C112.57 58.4542 112.402 57.7721 111.927 57.2801Z" fill="#606060"/>
<path d="M121.107 65.499V63.2625H115.332V65.499H114.577V62.6252H115.432C115.992 61.8368 116.472 60.8081 116.472 58.1523V56.0669H120.733V62.6028H121.851V65.4766L121.107 65.499ZM119.989 56.7322H117.194V58.3704C117.194 60.7801 116.757 61.9542 116.282 62.6252H119.961L119.989 56.7322Z" fill="#606060"/>
<path d="M128.292 62.5692C127.751 63.0763 127.037 63.3585 126.296 63.3585C125.554 63.3585 124.841 63.0763 124.3 62.5692C123.674 61.943 123.411 61.0653 123.411 59.6787C123.411 58.2921 123.674 57.4423 124.3 56.7881C124.564 56.5317 124.877 56.3301 125.219 56.1948C125.562 56.0595 125.928 55.9932 126.296 55.9998C128.141 55.9998 129.186 57.3137 129.186 59.6339C129.209 61.0652 128.94 61.9263 128.292 62.5692ZM127.783 57.2801C127.387 56.8895 126.852 56.6706 126.296 56.6706C125.739 56.6706 125.205 56.8895 124.809 57.2801C124.345 57.7554 124.166 58.3984 124.166 59.6787C124.166 60.9591 124.333 61.5853 124.809 62.0773C125.205 62.4679 125.739 62.6868 126.296 62.6868C126.852 62.6868 127.387 62.4679 127.783 62.0773C128.247 61.5965 128.426 60.959 128.426 59.7066C128.426 58.4542 128.292 57.7721 127.805 57.2801H127.783Z" fill="#606060"/>
<path d="M135.001 63.2681H131.646V56.0892H134.906C136.142 56.0892 136.98 56.8217 136.98 57.9343C136.99 58.3019 136.874 58.6619 136.651 58.9547C136.429 59.2474 136.113 59.4555 135.756 59.5445C136.146 59.6462 136.491 59.8764 136.734 60.1979C136.978 60.5195 137.106 60.9136 137.098 61.3168C137.126 62.5245 136.337 63.2681 135.001 63.2681ZM134.761 56.7322H132.424V59.2314H134.761C135.717 59.2314 136.237 58.7729 136.237 57.979C136.237 57.185 135.711 56.7322 134.772 56.7322H134.761ZM134.833 59.8743H132.424V62.6252H134.833C135.024 62.6424 135.217 62.6196 135.399 62.5583C135.58 62.4971 135.747 62.3986 135.889 62.2692C136.031 62.1398 136.144 61.9823 136.221 61.8068C136.298 61.6312 136.338 61.4415 136.338 61.2497C136.338 61.0579 136.298 60.8682 136.221 60.6927C136.144 60.5171 136.031 60.3597 135.889 60.2303C135.747 60.1009 135.58 60.0024 135.399 59.9412C135.217 59.8799 135.024 59.8571 134.833 59.8743Z" fill="#606060"/>
<path d="M33.8481 40.725C34.008 40.7256 34.1641 40.7745 34.2958 40.8653C34.4275 40.9561 34.5287 41.0846 34.5861 41.2338C34.8023 41.8102 35.1638 42.321 35.6354 42.7166C36.1071 43.1122 36.6731 43.3792 37.2783 43.4917C37.8836 43.6042 38.5076 43.5583 39.09 43.3587C39.6723 43.159 40.1931 42.8123 40.602 42.352C41.0269 41.7929 41.3624 41.1947 41.5413 39.3944C41.5522 39.2839 41.54 39.1724 41.5054 39.067C41.4708 38.9615 41.4146 38.8644 41.3405 38.7818C41.2663 38.6993 41.1758 38.633 41.0747 38.5874C40.9735 38.5417 40.864 38.5176 40.753 38.5166H35.3185C35.108 38.5166 34.906 38.433 34.7571 38.2841C34.6082 38.1352 34.5246 37.9332 34.5246 37.7227V33.6692C34.5246 33.5652 34.5451 33.4622 34.5851 33.3662C34.6251 33.2702 34.6836 33.183 34.7574 33.1097C34.8312 33.0364 34.9188 32.9785 35.0151 32.9392C35.1114 32.8999 35.2145 32.8801 35.3185 32.8808H40.7139C40.8254 32.8799 40.9354 32.8556 41.037 32.8096C41.1385 32.7636 41.2294 32.6969 41.3036 32.6137C41.3778 32.5305 41.4339 32.4327 41.4681 32.3265C41.5023 32.2204 41.5139 32.1083 41.5022 31.9974C41.3289 30.2698 41.0214 29.6604 40.602 29.1125C40.2743 28.7235 39.8624 28.4141 39.3974 28.2078C38.9325 28.0015 38.4267 27.9036 37.9183 27.9216C37.18 27.8762 36.4478 28.0803 35.8394 28.5011C35.2311 28.9219 34.7817 29.535 34.5637 30.2419C34.5072 30.3922 34.4064 30.5218 34.2746 30.6137C34.1428 30.7055 33.9863 30.7552 33.8257 30.7563H28.8721C28.7513 30.7555 28.6323 30.7274 28.524 30.6741C28.4156 30.6208 28.3208 30.5435 28.2465 30.4483C28.1723 30.3531 28.1206 30.2423 28.0953 30.1243C28.07 30.0062 28.0718 29.8839 28.1005 29.7666C29.3193 24.7347 33.1995 22.2522 37.9351 22.2522C39.3046 22.211 40.6676 22.4547 41.938 22.9676C43.2084 23.4806 44.3584 24.2518 45.3153 25.2323C48.1108 28.0278 47.999 31.7626 47.999 35.749C47.999 39.7354 48.1108 43.4702 45.3153 46.2658C44.3595 47.2481 43.2098 48.0209 41.9392 48.5349C40.6687 49.0489 39.3051 49.2929 37.9351 49.2514C33.1995 49.2514 29.3193 46.7746 28.1005 41.7314C28.0716 41.6145 28.0698 41.4924 28.0951 41.3746C28.1204 41.2568 28.1722 41.1463 28.2465 41.0515C28.3209 40.9566 28.4159 40.88 28.5243 40.8273C28.6326 40.7746 28.7516 40.7473 28.8721 40.7474L33.8481 40.725Z" fill="#0A3477"/>
<path d="M52.5333 48.2059V23.2419C52.5333 23.0313 52.617 22.8294 52.7659 22.6805C52.9147 22.5317 53.1167 22.448 53.3273 22.448H58.2697C58.4803 22.448 58.6822 22.5317 58.8311 22.6805C58.98 22.8294 59.0637 23.0313 59.0637 23.2419V32.0199C59.0636 32.1947 59.1212 32.3646 59.2276 32.5033C59.334 32.642 59.4833 32.7417 59.6521 32.7869C59.821 32.8322 60.0001 32.8204 60.1615 32.7535C60.323 32.6866 60.4579 32.5682 60.5452 32.4168L65.9909 22.845C66.0619 22.7242 66.1633 22.624 66.2849 22.5544C66.4064 22.4848 66.5441 22.4481 66.6843 22.448H72.2753C72.4174 22.448 72.557 22.4861 72.6794 22.5584C72.8018 22.6307 72.9025 22.7346 72.971 22.8591C73.0396 22.9836 73.0735 23.1242 73.0691 23.2663C73.0647 23.4084 73.0223 23.5467 72.9462 23.6668L66.1531 34.3737C66.0748 34.4995 66.0333 34.6448 66.0333 34.793C66.0333 34.9412 66.0748 35.0865 66.1531 35.2123L73.8463 47.7921C73.9198 47.9124 73.9598 48.0501 73.9625 48.191C73.9651 48.3319 73.9303 48.4709 73.8614 48.5939C73.7925 48.7168 73.6921 48.8192 73.5706 48.8906C73.4491 48.9619 73.3108 48.9996 73.1698 48.9998H67.3496C67.2089 48.9993 67.071 48.9612 66.9501 48.8894C66.8292 48.8176 66.7297 48.7148 66.6619 48.5916L60.5117 37.7227C60.4249 37.5721 60.291 37.4541 60.1306 37.387C59.9702 37.3198 59.7921 37.3072 59.6239 37.351C59.4556 37.3948 59.3064 37.4926 59.1992 37.6295C59.0919 37.7663 59.0325 37.9346 59.0301 38.1084V48.2059C59.0286 48.416 58.9445 48.6171 58.7959 48.7657C58.6474 48.9142 58.4463 48.9984 58.2361 48.9998H53.2937C53.0895 48.9898 52.8968 48.9019 52.7554 48.7543C52.614 48.6066 52.5345 48.4103 52.5333 48.2059Z" fill="#0A3477"/>
<path d="M88.4445 49.0054H77.6818C77.4712 49.0054 77.2693 48.9217 77.1204 48.7728C76.9715 48.6239 76.8879 48.422 76.8879 48.2115V23.2475C76.8872 23.143 76.9072 23.0395 76.9468 22.9428C76.9864 22.8462 77.0448 22.7583 77.1187 22.6845C77.1926 22.6106 77.2805 22.5522 77.3771 22.5125C77.4738 22.4729 77.5773 22.4528 77.6818 22.4536H87.8854C93.0683 22.4536 96.3502 25.3609 96.3502 29.912C96.3913 30.8242 96.2233 31.7337 95.8589 32.571C95.4945 33.4083 94.9435 34.1511 94.248 34.7427C94.1588 34.8172 94.087 34.9104 94.0377 35.0157C93.9885 35.121 93.9629 35.2359 93.9629 35.3521C93.9629 35.4684 93.9885 35.5832 94.0377 35.6885C94.087 35.7938 94.1588 35.887 94.248 35.9615C96.0036 37.3145 96.7137 38.8633 96.7137 41.2115C96.7249 45.9695 93.482 49.0054 88.4445 49.0054ZM87.4773 28.3186H84.2065C84.1021 28.3179 83.9985 28.3379 83.9018 28.3775C83.8051 28.4172 83.7173 28.4756 83.6435 28.5494C83.5696 28.6233 83.5111 28.7112 83.4715 28.8078C83.4319 28.9045 83.4118 29.008 83.4126 29.1125V31.8521C83.4126 31.9564 83.4332 32.0596 83.4731 32.156C83.513 32.2523 83.5714 32.3398 83.6451 32.4135C83.7188 32.4873 83.8064 32.5457 83.9027 32.5856C83.999 32.6255 84.1023 32.6461 84.2065 32.6461H87.4773C88.9701 32.6461 89.8255 31.8242 89.8255 30.4823C89.8255 29.1405 88.9701 28.3074 87.4773 28.3074V28.3186ZM87.8127 38.4999H84.2065C84.1021 38.4991 83.9985 38.5191 83.9018 38.5588C83.8051 38.5984 83.7173 38.6569 83.6435 38.7308C83.5696 38.8046 83.5111 38.8924 83.4715 38.9891C83.4319 39.0857 83.4118 39.1893 83.4126 39.2938V42.3689C83.4126 42.4729 83.4332 42.5758 83.4731 42.6718C83.5131 42.7679 83.5717 42.855 83.6455 42.9283C83.7193 43.0015 83.8068 43.0595 83.9031 43.0988C83.9994 43.1381 84.1025 43.1579 84.2065 43.1572H87.8127C88.1304 43.1875 88.4509 43.148 88.7517 43.0413C89.0525 42.9346 89.3263 42.7633 89.5538 42.5395C89.7813 42.3157 89.9571 42.0449 90.0687 41.7459C90.1804 41.4469 90.2252 41.1271 90.2001 40.809C90.2001 39.3441 89.3055 38.4887 87.8127 38.4887V38.4999Z" fill="#0A3477"/>
<path d="M115.432 48.2059V37.4431C115.432 37.2696 115.374 37.1011 115.268 36.9635C115.163 36.8258 115.015 36.7265 114.847 36.6809C114.68 36.6352 114.502 36.6456 114.341 36.7106C114.18 36.7756 114.045 36.8915 113.956 37.0406L107.163 48.6084C107.093 48.7269 106.993 48.8252 106.874 48.8938C106.754 48.9623 106.619 48.9989 106.481 48.9998H102.008C101.798 48.9984 101.597 48.9142 101.449 48.7657C101.3 48.6171 101.216 48.416 101.214 48.2059V23.2419C101.214 23.0313 101.298 22.8294 101.447 22.6805C101.596 22.5317 101.798 22.448 102.008 22.448H106.951C107.055 22.448 107.158 22.4686 107.254 22.5086C107.35 22.5485 107.437 22.6071 107.51 22.6809C107.584 22.7547 107.641 22.8422 107.681 22.9385C107.72 23.0348 107.74 23.1379 107.739 23.2419V34.0046C107.74 34.1782 107.798 34.3466 107.903 34.4843C108.009 34.622 108.157 34.7213 108.324 34.7669C108.492 34.8126 108.669 34.8021 108.83 34.7372C108.991 34.6722 109.126 34.5563 109.215 34.4072L116.014 22.8394C116.084 22.7205 116.183 22.6219 116.303 22.5533C116.423 22.4846 116.558 22.4484 116.696 22.448H121.169C121.273 22.448 121.376 22.4686 121.472 22.5086C121.568 22.5485 121.655 22.6071 121.728 22.6809C121.802 22.7547 121.859 22.8422 121.899 22.9385C121.938 23.0348 121.958 23.1379 121.957 23.2419V48.2059C121.957 48.4155 121.874 48.6166 121.727 48.7653C121.579 48.914 121.378 48.9983 121.169 48.9998H116.226C116.016 48.9984 115.815 48.9142 115.667 48.7657C115.518 48.6171 115.434 48.416 115.432 48.2059Z" fill="#0A3477"/>
<path d="M138.825 29.0622V48.2059C138.825 48.4155 138.742 48.6166 138.595 48.7653C138.447 48.9141 138.247 48.9984 138.037 48.9998H133.094C132.884 48.9984 132.683 48.9142 132.535 48.7657C132.386 48.6171 132.302 48.416 132.301 48.2059V29.0566C132.301 28.9523 132.28 28.8491 132.24 28.7528C132.2 28.6564 132.142 28.5689 132.068 28.4952C131.994 28.4215 131.907 28.363 131.81 28.3231C131.714 28.2832 131.611 28.2627 131.507 28.2627H126.57C126.466 28.2634 126.363 28.2436 126.266 28.2043C126.17 28.165 126.083 28.107 126.009 28.0337C125.935 27.9605 125.876 27.8733 125.836 27.7773C125.796 27.6813 125.776 27.5784 125.776 27.4744V23.2419C125.775 23.1375 125.795 23.0339 125.835 22.9373C125.874 22.8406 125.933 22.7527 126.007 22.6789C126.081 22.605 126.168 22.5466 126.265 22.5069C126.362 22.4673 126.465 22.4473 126.57 22.448H144.562C144.772 22.448 144.974 22.5317 145.123 22.6806C145.272 22.8295 145.356 23.0314 145.356 23.2419V27.4744C145.354 27.684 145.27 27.8844 145.121 28.0321C144.972 28.1798 144.771 28.2627 144.562 28.2627H139.619C139.408 28.2641 139.206 28.349 139.057 28.4988C138.909 28.6486 138.825 28.8511 138.825 29.0622Z" fill="#0A3477"/>
<path d="M161.586 48.4463L160.703 45.6061C160.654 45.4442 160.554 45.3025 160.418 45.2018C160.282 45.1011 160.117 45.0468 159.948 45.0469H152.937C152.768 45.0477 152.604 45.1023 152.468 45.2029C152.332 45.3034 152.232 45.4447 152.182 45.6061L151.237 48.4687C151.187 48.63 151.087 48.7713 150.952 48.8718C150.816 48.9724 150.652 49.027 150.483 49.0278H145.367C145.239 49.0275 145.113 48.9965 145 48.9373C144.887 48.878 144.79 48.7923 144.717 48.6875C144.644 48.5827 144.597 48.4618 144.581 48.3352C144.565 48.2085 144.579 48.0798 144.623 47.9599L153.703 22.996C153.758 22.8432 153.859 22.7113 153.993 22.6183C154.126 22.5252 154.284 22.4755 154.447 22.476H158.36C158.523 22.4747 158.682 22.5241 158.815 22.6172C158.948 22.7104 159.049 22.8428 159.104 22.996L168.189 47.9599C168.232 48.0803 168.246 48.2091 168.229 48.3356C168.211 48.4622 168.164 48.5829 168.091 48.6875C168.017 48.792 167.92 48.8775 167.807 48.9367C167.694 48.9959 167.568 49.0271 167.44 49.0278H162.33C162.16 49.0223 161.997 48.963 161.863 48.8585C161.73 48.754 161.633 48.6096 161.586 48.4463ZM155.8 34.821L154.542 38.5614C154.502 38.6804 154.491 38.8072 154.51 38.9313C154.528 39.0555 154.576 39.1734 154.649 39.2754C154.723 39.3774 154.819 39.4607 154.93 39.5183C155.042 39.5759 155.165 39.6063 155.291 39.6069H157.734C157.859 39.6066 157.982 39.577 158.093 39.5203C158.204 39.4637 158.3 39.3817 158.374 39.281C158.447 39.1803 158.496 39.0636 158.516 38.9406C158.536 38.8175 158.527 38.6914 158.489 38.5726L157.309 34.8377C157.259 34.6779 157.16 34.538 157.025 34.4381C156.891 34.3382 156.728 34.2833 156.561 34.2815C156.393 34.2796 156.229 34.3308 156.093 34.4277C155.956 34.5246 155.853 34.6623 155.8 34.821Z" fill="#0A3477"/>
<path d="M180.109 49.229C178.739 49.2709 177.374 49.0272 176.102 48.5132C174.831 47.9992 173.68 47.2262 172.724 46.2434C169.928 43.4479 170.04 39.7187 170.04 35.7267C170.04 31.7347 169.928 28.0111 172.724 25.21C173.681 24.229 174.832 23.4576 176.104 22.9447C177.375 22.4317 178.739 22.1883 180.109 22.23C184.856 22.23 188.736 24.7124 189.978 29.9064C190.004 30.0201 190.005 30.1382 189.98 30.2523C189.956 30.3664 189.906 30.4737 189.835 30.5662C189.764 30.6587 189.673 30.7343 189.569 30.7875C189.465 30.8406 189.351 30.8701 189.234 30.8737H184.146C183.978 30.8709 183.816 30.8154 183.681 30.7151C183.547 30.6147 183.447 30.4746 183.397 30.3146C183.207 29.6179 182.782 29.0083 182.194 28.5886C181.606 28.1689 180.892 27.9649 180.171 28.0111C179.685 27.9881 179.201 28.077 178.755 28.2709C178.309 28.4648 177.914 28.7584 177.599 29.1293C177.006 29.912 176.593 30.8457 176.593 35.6931C176.593 40.5406 177.006 41.4743 177.599 42.257C178.002 42.6965 178.511 43.0242 179.078 43.2081C179.645 43.3921 180.25 43.426 180.834 43.3066C181.418 43.1872 181.961 42.9187 182.41 42.527C182.859 42.1353 183.199 41.6339 183.397 41.0717C183.449 40.9126 183.549 40.7734 183.683 40.6733C183.817 40.5732 183.979 40.5171 184.146 40.5126H189.234C189.354 40.5127 189.472 40.54 189.58 40.5923C189.688 40.6447 189.783 40.7208 189.857 40.8149C189.931 40.9091 189.983 41.0188 190.009 41.1359C190.035 41.253 190.033 41.3744 190.006 41.491C188.736 46.741 184.856 49.229 180.109 49.229Z" fill="#0A3477"/>
<path d="M77.6874 98.5251L68.8032 82.4565C68.618 82.1268 68.5619 81.7401 68.6456 81.3713C68.7292 81.0026 68.9468 80.678 69.2561 80.4605C71.4001 78.9753 73.4094 77.3046 75.2609 75.4677C75.3469 75.3825 75.4152 75.281 75.4618 75.1692C75.5084 75.0574 75.5324 74.9375 75.5324 74.8163C75.5324 74.6952 75.5084 74.5753 75.4618 74.4635C75.4152 74.3517 75.3469 74.2503 75.2609 74.165L71.7497 70.7712C71.5791 70.6029 71.3492 70.5085 71.1095 70.5085C70.8699 70.5085 70.6399 70.6029 70.4693 70.7712C66.9666 74.2525 62.8049 77.0003 58.2276 78.8541C53.6503 80.7078 48.7494 81.6303 43.8113 81.5676C38.0034 81.5208 32.286 80.124 27.1107 77.4878C21.9353 74.8516 17.4438 71.0481 13.9911 66.3778C10.5383 61.7074 8.21888 56.2982 7.21595 50.5774C6.21302 44.8566 6.5541 38.9809 8.21223 33.4145C9.87036 27.8482 12.8001 22.7436 16.7701 18.5041C20.74 14.2646 25.6414 11.0064 31.087 8.98673C36.5326 6.96705 42.3732 6.24129 48.1475 6.86682C53.9218 7.49235 59.4716 9.45202 64.3584 12.591C64.5551 12.7213 64.7954 12.7685 65.0268 12.7224C65.2582 12.6763 65.4621 12.5406 65.594 12.345L68.3392 8.27468C68.4069 8.1761 68.4542 8.06499 68.4783 7.94783C68.5023 7.83066 68.5026 7.70987 68.4792 7.59259C68.4557 7.4753 68.409 7.36389 68.3417 7.26499C68.2745 7.16608 68.188 7.08162 68.0875 7.01669C60.6673 2.21965 51.9735 -0.229475 43.1404 -0.0112022C18.9145 0.547901 -0.503171 20.8825 0.0279766 45.1084C0.296464 56.6403 5.06277 67.6104 13.3092 75.6761C21.5556 83.7417 32.6285 88.2639 44.1636 88.2768C45.5669 88.2768 46.9591 88.2041 48.3401 88.0699C49.0406 88.0031 49.7472 88.0928 50.4087 88.3327L77.6874 98.5251Z" fill="#24B282"/>
</g>
<defs>
<clipPath id="clip0_11_39">
<rect width="190" height="98.5307" fill="white"/>
</clipPath>
</defs>
</svg>
